<?xml version="1.0" encoding="UTF-8" standalone="no"?>
<svg
   xmlns:dc="http://purl.org/dc/elements/1.1/"
   xmlns:cc="http://creativecommons.org/ns#"
   xmlns:rdf="http://www.w3.org/1999/02/22-rdf-syntax-ns#"
   xmlns:svg="http://www.w3.org/2000/svg"
   xmlns="http://www.w3.org/2000/svg"
   xmlns:xlink="http://www.w3.org/1999/xlink"
   xmlns:sodipodi="http://sodipodi.sourceforge.net/DTD/sodipodi-0.dtd"
   xmlns:inkscape="http://www.inkscape.org/namespaces/inkscape"
   inkscape:version="1.0beta2 (2b71d25, 2019-12-03)"
   sodipodi:docname="logo.svg"
   id="svg110"
   version="1.1"
   stroke-miterlimit="100000"
   stroke-linejoin="round"
   stroke-linecap="butt"
   width="1089.5891"
   viewBox="0 0 817.19183 164.23"
   height="218.97333">
  <metadata
     id="metadata114">
    <rdf:RDF>
      <cc:Work
         rdf:about="">
        <dc:format>image/svg+xml</dc:format>
        <dc:type
           rdf:resource="http://purl.org/dc/dcmitype/StillImage" />
        <dc:title />
      </cc:Work>
    </rdf:RDF>
  </metadata>
  <sodipodi:namedview
     showguides="false"
     fit-margin-bottom="0"
     fit-margin-right="0"
     fit-margin-left="0"
     fit-margin-top="0"
     inkscape:current-layer="svg110"
     inkscape:window-maximized="0"
     inkscape:window-y="0"
     inkscape:window-x="0"
     inkscape:cy="109.48666"
     inkscape:cx="544.79456"
     inkscape:zoom="1.1976992"
     showgrid="false"
     id="namedview112"
     inkscape:window-height="1050"
     inkscape:window-width="1680"
     inkscape:pageshadow="2"
     inkscape:pageopacity="0"
     guidetolerance="10"
     gridtolerance="10"
     objecttolerance="10"
     borderopacity="1"
     inkscape:document-rotation="0"
     bordercolor="#666666"
     pagecolor="#ffffff" />
  <style
     id="style10"><![CDATA[.B{clip-path:url(#L)}.C{opacity:.56}.D{opacity:.6}.E{clip-path:url(#A)}.F{opacity:.9}.G{stroke-miterlimit:100}.H{stroke-dasharray:0.20408517, 0.40817035}]]></style>
  <defs
     id="defs28">
    <clipPath
       id="A">
      <path
         inkscape:connector-curvature="0"
         id="path12"
         d="m 54,73.26 c 8.93,0 17.5,-3.55 23.8,-9.86 6.3,-6.31 9.86,-14.87 9.86,-23.8 0,-8.93 -3.55,-17.5 -9.86,-23.8 C 71.49,9.5 62.93,5.94 54,5.94 c -8.93,0 -17.5,3.56 -23.8,9.86 -6.3,6.3 -9.86,14.87 -9.86,23.8 0,8.93 3.55,17.5 9.86,23.8 6.31,6.3 14.87,9.86 23.8,9.86 z" />
    </clipPath>
    <path
       inkscape:connector-curvature="0"
       d="m 335,149.3 q -0.3,4.12 -1.03,6.36 -0.63,2.15 -1.54,3.1 -0.9,0.84 -2.65,1.6 -1.64,0.66 -3.92,1.12 -2.2,0.56 -4.84,0.84 -2.55,0.28 -5.17,0.28 -7.02,0 -12.03,-1.78 -5,-1.78 -8.1,-5.43 -3.1,-3.74 -4.26,-9.36 -1.17,-5.62 -0.6,-13.3 l 3.18,-42.77 h -10 q -1.78,0 -2.55,-2.15 -0.77,-2.25 -0.4,-7.4 0.2,-2.7 0.53,-4.6 0.42,-1.87 0.96,-2.9 0.55,-1.12 1.24,-1.6 0.78,-0.47 1.72,-0.47 h 9.92 l 1.4,-18.62 q 0.07,-0.94 0.6,-1.68 0.62,-0.75 1.96,-1.22 1.45,-0.56 3.7,-0.75 2.36,-0.28 5.73,-0.28 3.46,0 5.7,0.28 2.33,0.2 3.6,0.75 1.28,0.47 1.78,1.22 0.5,0.75 0.44,1.68 l -1.4,18.62 h 18.16 q 0.94,0 1.56,0.47 0.7,0.47 1.1,1.6 0.4,1.03 0.44,2.9 0.14,1.87 -0.06,4.6 -0.38,5.15 -1.5,7.4 -1.1,2.15 -2.87,2.15 h -18.25 l -2.92,39.2 q -0.5,6.83 1.4,10.3 1.9,3.37 7.42,3.37 1.87,0 3.4,-0.28 1.53,-0.37 2.68,-0.75 1.25,-0.47 2.02,-0.75 0.87,-0.37 1.53,-0.37 0.56,0 1,0.37 0.54,0.28 0.74,1.3 0.2,0.94 0.27,2.62 0.16,1.68 -0.04,4.3 z"
       id="B" />
    <path
       inkscape:connector-curvature="0"
       d="m 478.15,157.53 q -0.07,0.94 -0.7,1.68 -0.6,0.66 -2.05,1.12 -1.35,0.47 -3.6,0.66 -2.27,0.28 -5.73,0.28 -3.46,0 -5.7,-0.28 -2.23,-0.2 -3.6,-0.66 -1.28,-0.47 -1.8,-1.12 -0.5,-0.75 -0.44,-1.68 l 9.16,-123.07 q 0.07,-0.94 0.7,-1.68 0.62,-0.75 1.96,-1.22 1.45,-0.56 3.7,-0.84 2.27,-0.28 5.73,-0.28 3.46,0 5.7,0.28 2.23,0.28 3.5,0.84 1.37,0.47 1.87,1.22 0.5,0.75 0.44,1.68 l -9.16,123.07 z"
       id="C" />
    <path
       inkscape:connector-curvature="0"
       d="m 545.5,184.6 a 70.8,70.8 0 0 0 70.8,-70.8 70.8,70.8 0 0 0 -70.8,-70.8 70.8,70.8 0 0 0 -70.8,70.8 70.8,70.8 0 0 0 70.8,70.8 z"
       id="D" />
    <path
       inkscape:connector-curvature="0"
       d="m 54,39.6 7.13,-2.27 0.01,0.02 0.03,0.1 0.01,0.05 0.03,0.1 0.01,0.05 0.03,0.1 0.04,0.16 0.03,0.14 0.03,0.16 0.02,0.12 0.01,0.05 0.01,0.1 v 0.05 l 0.02,0.12 v 0.05 l 0.01,0.1 0.01,0.05 0.01,0.1 0.01,0.07 v 0.07 l 0.01,0.1 v 0.05 0.1 0.07 0.07 0.07 0.1 h -7.4 z"
       id="E" />
    <path
       inkscape:connector-curvature="0"
       d="m 54,39.6 8.02,-20.96 0.4,0.15 0.4,0.16 0.06,0.03 0.32,0.14 0.06,0.03 0.38,0.18 0.44,0.22 0.3,0.16 0.12,0.07 0.25,0.13 0.12,0.07 0.3,0.17 0.06,0.04 0.36,0.22 0.36,0.22 0.06,0.04 0.3,0.2 0.06,0.04 0.35,0.24 0.35,0.24 0.06,0.04 0.28,0.2 0.1,0.08 0.22,0.17 0.1,0.1 0.1,0.1 -13.85,17.37 z"
       id="F" />
    <path
       inkscape:connector-curvature="0"
       d="m 54,39.6 -19.17,-22.97 0.44,-0.36 0.55,-0.44 0.34,-0.25 0.1,-0.08 0.34,-0.25 0.23,-0.16 0.23,-0.16 0.23,-0.16 0.23,-0.16 0.35,-0.23 0.12,-0.08 0.36,-0.22 0.12,-0.07 0.5,-0.3 0.5,-0.28 0.62,-0.34 0.38,-0.2 0.13,-0.06 0.5,-0.25 0.5,-0.24 0.65,-0.28 0.4,-0.16 0.13,-0.05 0.52,-0.2 0.53,-0.2 0.67,-0.23 0.4,-0.13 0.13,-0.04 0.54,-0.16 0.54,-0.15 0.68,-0.18 0.4,-0.1 0.14,-0.03 6.6,28.88 z"
       id="G" />
    <path
       inkscape:connector-curvature="0"
       d="m 54,39.6 -25.76,4.67 -0.03,-0.16 -0.05,-0.32 -0.05,-0.33 -0.02,-0.16 -0.04,-0.33 -0.02,-0.16 -0.04,-0.33 -0.02,-0.16 -0.05,-0.5 -0.04,-0.5 -0.03,-0.5 -0.01,-0.16 -0.01,-0.33 v -0.16 l -0.01,-0.33 v -0.16 -0.33 -0.33 -0.16 l 0.01,-0.33 0.01,-0.16 0.02,-0.33 0.02,-0.33 v -0.16 l 0.03,-0.33 0.02,-0.16 0.03,-0.33 0.04,-0.33 0.02,-0.16 0.04,-0.33 0.02,-0.16 0.05,-0.33 0.03,-0.16 0.1,-0.5 0.1,-0.48 0.1,-0.48 0.04,-0.16 0.08,-0.32 0.04,-0.16 0.08,-0.32 0.04,-0.16 0.1,-0.32 0.1,-0.32 0.05,-0.16 0.1,-0.3 0.05,-0.16 0.1,-0.3 0.1,-0.3 0.06,-0.15 0.1,-0.3 0.06,-0.15 0.12,-0.3 0.06,-0.15 0.2,-0.46 0.2,-0.45 0.2,-0.45 0.07,-0.15 23.35,11.24 z"
       id="H" />
    <path
       inkscape:connector-curvature="0"
       d="m 54,39.6 -12.36,8.42 -0.05,-0.08 -0.12,-0.18 -0.05,-0.08 -0.1,-0.16 -0.06,-0.1 -0.1,-0.16 -0.06,-0.1 -0.08,-0.14 -0.07,-0.12 -0.08,-0.14 -0.07,-0.12 -0.07,-0.12 -0.08,-0.15 -0.06,-0.13 -0.07,-0.15 13.34,-6.43 z"
       id="I" />
    <path
       inkscape:connector-curvature="0"
       d="m 54,39.6 3.13,18.44 -0.36,0.06 H 56.7 l -0.3,0.04 -0.07,0.01 -0.3,0.03 h -0.07 l -0.3,0.03 -0.07,0.01 -0.3,0.02 h -0.07 l -0.3,0.02 h -0.15 l -0.22,0.01 h -0.07 -0.37 -0.22 -0.07 -0.3 -0.07 l -0.3,-0.01 h -0.07 l -0.3,-0.02 H 52.71 L 52.41,58.22 52.26,58.21 52.11,58.2 H 51.89 L 51.67,58.17 51.52,58.15 51.3,58.12 H 51.15 L 50.93,58.09 50.79,58.07 50.57,58.03 50.43,58 50.21,57.96 50.07,57.93 49.77,57.87 53.89,39.82 Z"
       id="J" />
    <path
       inkscape:connector-curvature="0"
       d="m 54,39.6 23.56,18.45 -0.35,0.44 -0.4,0.5 -0.37,0.43 -0.42,0.47 -0.4,0.4 -0.44,0.45 -0.4,0.4 -0.46,0.44 -0.42,0.38 -0.48,0.42 -0.43,0.36 -0.33,0.27 L 54.2,39.83 Z"
       id="K" />
    <clipPath
       id="L">
      <path
         inkscape:connector-curvature="0"
         id="path25"
         d="m 54,73.26 c 8.93,0 17.5,-3.55 23.8,-9.86 6.3,-6.31 9.86,-14.87 9.86,-23.8 0,-8.93 -3.55,-17.5 -9.86,-23.8 C 71.49,9.5 62.93,5.94 54,5.94 c -8.93,0 -17.5,3.56 -23.8,9.86 -6.3,6.3 -9.86,14.87 -9.86,23.8 0,8.93 3.55,17.5 9.86,23.8 6.31,6.3 14.87,9.86 23.8,9.86 z" />
    </clipPath>
    <clipPath
       clipPathUnits="userSpaceOnUse"
       id="clipPath3442">
      <rect
         style="fill:#000000;fill-opacity:1;stroke:none;stroke-width:0.922435;stroke-miterlimit:4;stroke-dasharray:none;stroke-opacity:1"
         id="rect3444"
         width="20.614058"
         height="12.483703"
         x="171.99832"
         y="239.1203" />
    </clipPath>
  </defs>
  <path
     d="m 132.92643,127.09 q -0.07,0.94 -0.7,1.68 -0.6,0.66 -1.96,1.12 -1.35,0.47 -3.6,0.66 -2.27,0.28 -5.73,0.28 -3.56,0 -5.78,-0.28 -2.23,-0.2 -3.6,-0.66 -1.28,-0.47 -1.8,-1.12 -0.4,-0.75 -0.34,-1.68 l 3.68,-49.5 q 0.3,-4.2 -0.27,-7.67 -0.5,-3.46 -2,-5.9 -1.4,-2.53 -3.83,-3.84 -2.33,-1.4 -5.8,-1.4 -4.200001,0 -8.760001,3.28 -4.55,3.28 -10.07,9.55 l -4.13,55.5 q -0.07,0.94 -0.7,1.68 -0.6,0.66 -2.05,1.12 -1.35,0.47 -3.6,0.66 -2.27,0.28 -5.64,0.28 -3.46,0 -5.7,-0.28 -2.23,-0.2 -3.6,-0.66 -1.28,-0.47 -1.8,-1.12 -0.5,-0.75 -0.44,-1.68 l 3.68,-49.5 q 0.3,-4.2 -0.27,-7.67 -0.5,-3.46 -1.9,-5.9 -1.4,-2.53 -3.83,-3.84 -2.42,-1.4 -5.8,-1.4 -4.3,0 -8.85,3.28 -4.55,3.28 -9.98,9.55 l -4.13,55.5 q -0.07,0.94 -0.7,1.68 -0.6,0.66 -2.05,1.12 -1.35,0.47 -3.6,0.66 -2.27,0.28 -5.73,0.28 -3.46,0 -5.7,-0.28 -2.23,-0.2 -3.6,-0.66 -1.28,-0.47 -1.8,-1.12 -0.5,-0.75 -0.44,-1.68 l 6.2,-83.48 q 0.07,-0.94 0.6,-1.6 0.52,-0.75 1.78,-1.22 1.25,-0.47 3.14,-0.66 2,-0.28 4.9,-0.28 3,0 4.94,0.28 1.95,0.2 2.95,0.66 1.1,0.47 1.5,1.22 0.42,0.66 0.35,1.6 l -0.72,9.64 q 7.48,-7.5 14.6,-11.23 7.2,-3.74 14.7,-3.74 5.15,0 9.18,1.12 4.04,1.03 7.07,3.1 3.13,1.97 5.26,4.77 2.13,2.8 3.46,6.27 4.04,-4.02 7.82,-6.93 3.87,-2.9 7.46,-4.68 3.7,-1.87 7.220001,-2.7 3.63,-0.94 7.28,-0.94 8.33,0 13.83,2.8 5.5,2.8 8.6,7.67 3.2,4.77 4.22,11.23 1.02,6.46 0.48,13.66 l -3.98,53.44 z m 94.4,0.27 q -0.1,1.3 -1.1,2.06 -1,0.75 -3.07,1.03 -2,0.37 -5.92,0.37 -4.2,0 -6.15,-0.37 -1.85,-0.28 -2.64,-1.03 -0.7,-0.75 -0.6,-2.06 l 0.5,-6.64 q -5.56,5.52 -12.43,8.6 -6.78,3.1 -14.83,3.1 -6.64,0 -12.13,-1.78 -5.4,-1.68 -9.26,-5.05 -3.77,-3.46 -5.64,-8.52 -1.87,-5.05 -1.37,-11.8 0.54,-7.3 3.75,-12.63 3.3,-5.43 9.18,-8.9 5.97,-3.56 14.52,-5.24 8.55,-1.68 19.68,-1.68 h 8.14 l 0.38,-5.05 q 0.3,-3.93 -0.33,-6.83 -0.53,-3 -2.25,-4.96 -1.63,-1.97 -4.65,-2.9 -2.93,-0.94 -7.42,-0.94 -5.9,0 -10.67,1.3 -4.68,1.3 -8.36,2.9 -3.67,1.6 -6.2,2.9 -2.44,1.3 -3.93,1.3 -1.03,0 -1.82,-0.66 -0.7,-0.66 -1.17,-1.87 -0.38,-1.22 -0.53,-3 -0.15,-1.78 0.01,-3.93 0.22,-2.9 0.8,-4.6 0.6,-1.68 2,-3 1.4,-1.4 4.8,-3 3.4,-1.68 7.9,-3.1 4.5,-1.4 9.7,-2.25 5.3,-0.94 10.83,-0.94 9.83,0 16.6,1.97 6.88,1.87 11.07,5.9 4.2,3.93 5.8,10.2 1.6,6.27 0.95,14.88 l -4.18,56.15 z m -20.46,-35.75 h -8.98 q -5.7,0 -9.8,0.84 -4.1,0.84 -6.74,2.53 -2.65,1.68 -4.05,4.12 -1.3,2.34 -1.53,5.43 -0.4,5.24 2.66,8.24 3.15,3 9.04,3 4.96,0 9.27,-2.53 4.4,-2.53 9.07,-7.4 z"
     id="path30"
     inkscape:connector-curvature="0"
     style="fill:#11557c" />
  <use
     transform="translate(-35.913571,-30.44)"
     xlink:href="#B"
     id="use32"
     x="0"
     y="0"
     width="100%"
     height="100%"
     style="fill:#11557c" />
  <path
     d="m 402.93643,84.13 q -0.83,11.14 -3.93,20.12 -3,8.9 -8.05,15.16 -5.05,6.27 -12.13,9.64 -7.08,3.37 -15.88,3.37 -3.65,0 -6.68,-0.75 -2.95,-0.66 -5.74,-2.06 -2.7,-1.5 -5.34,-3.65 -2.65,-2.15 -5.43,-5.05 l -2.92,39.3 q -0.07,0.94 -0.7,1.68 -0.62,0.75 -2.06,1.22 -1.35,0.56 -3.62,0.84 -2.27,0.28 -5.73,0.28 -3.46,0 -5.7,-0.28 -2.23,-0.28 -3.6,-0.84 -1.28,-0.47 -1.78,-1.22 -0.5,-0.75 -0.44,-1.68 l 8.68,-116.6 q 0.07,-0.94 0.6,-1.6 0.52,-0.75 1.68,-1.22 1.25,-0.47 3.14,-0.66 2,-0.28 4.9,-0.28 2.8,0 4.66,0.28 1.95,0.2 3.04,0.66 1.18,0.47 1.6,1.22 0.42,0.66 0.35,1.6 l -0.73,9.83 q 3.93,-3.74 7.6,-6.55 3.77,-2.9 7.56,-4.77 3.8,-1.97 7.7,-2.9 4,-0.94 8.4,-0.94 9.17,0 15.36,3.65 6.2,3.56 9.75,9.83 3.65,6.27 4.9,14.6 1.25,8.33 0.55,17.78 z m -24.65,1.68 q 0.4,-5.33 -0.08,-10.2 -0.38,-4.96 -2.06,-8.8 -1.6,-3.84 -4.6,-6.08 -2.9,-2.34 -7.6,-2.34 -2.34,0 -4.74,0.75 -2.3,0.66 -4.85,2.25 -2.46,1.6 -5.17,4.12 -2.7,2.53 -5.8,6.27 l -2.05,27.5 q 4.5,6.27 8.73,9.73 4.24,3.37 9.1,3.37 4.6,0 7.94,-2.34 3.45,-2.34 5.8,-6.08 2.34,-3.84 3.64,-8.6 1.38,-4.77 1.74,-9.55 z"
     id="path34"
     inkscape:connector-curvature="0"
     style="fill:#11557c" />
  <use
     transform="translate(-35.913571,-30.44)"
     xlink:href="#C"
     id="use36"
     x="0"
     y="0"
     width="100%"
     height="100%"
     style="fill:#11557c" />
  <path
     d="m 553.38643,84.51 q -0.8,10.67 -4.26,19.47 -3.46,8.8 -9.64,15.16 -6.18,6.36 -15.05,9.83 -8.87,3.46 -20.38,3.46 -11.14,0 -19.14,-3.1 -8,-3.1 -13,-8.98 -5,-5.9 -6.97,-14.5 -1.98,-8.6 -1.16,-19.65 0.8,-10.67 4.26,-19.47 3.56,-8.9 9.74,-15.16 6.18,-6.36 14.96,-9.83 8.87,-3.46 20.38,-3.46 11.23,0 19.24,3.1 8,3 12.9,8.9 5,5.9 6.97,14.5 1.98,8.6 1.15,19.75 z m -24.3,0.94 q 0.46,-6.18 -0.2,-11.32 -0.55,-5.24 -2.6,-9.08 -2.05,-3.84 -5.82,-6 -3.68,-2.15 -9.57,-2.15 -5.24,0 -9.32,1.97 -4.07,1.87 -6.88,5.62 -2.8,3.65 -4.5,8.9 -1.6,5.15 -2.1,11.8 -0.46,6.18 0.18,11.42 0.65,5.15 2.6,8.98 2.05,3.84 5.82,6 3.78,2.06 9.58,2.06 5.33,0 9.4,-1.87 4.08,-1.97 6.88,-5.62 2.8,-3.65 4.4,-8.8 1.6,-5.24 2.1,-11.9 z"
     id="path38"
     inkscape:connector-curvature="0"
     style="fill:#11557c" />
  <use
     transform="translate(-35.913571,-30.44)"
     xlink:href="#B"
     x="319.70001"
     id="use40"
     y="0"
     width="100%"
     height="100%"
     style="fill:#11557c" />
  <use
     transform="translate(-35.913571,-30.44)"
     xlink:href="#C"
     x="216.75"
     id="use42"
     y="0"
     width="100%"
     height="100%"
     style="fill:#11557c" />
  <path
     d="m 706.14643,127.09 q -0.07,0.94 -0.7,1.68 -0.6,0.66 -2.05,1.12 -1.35,0.47 -3.6,0.66 -2.27,0.28 -5.73,0.28 -3.46,0 -5.7,-0.28 -2.23,-0.2 -3.6,-0.66 -1.28,-0.47 -1.8,-1.12 -0.5,-0.75 -0.44,-1.68 l 6.2,-83.3 q 0.07,-0.94 0.68,-1.6 0.62,-0.75 1.96,-1.22 1.45,-0.56 3.7,-0.84 2.27,-0.28 5.73,-0.28 3.46,0 5.7,0.28 2.23,0.28 3.5,0.84 1.37,0.47 1.87,1.22 0.5,0.66 0.44,1.6 l -6.2,83.3 z m 10.1,-111.74 q -0.53,7.1 -3.63,9.83 -3.1,2.7 -10.96,2.7 -7.95,0 -10.57,-2.62 -2.52,-2.62 -2,-9.45 0.53,-7.1 3.54,-9.83 3.1,-2.8 11.06,-2.8 7.86,0 10.47,2.7 2.6,2.62 2.1,9.45 z m 100.7,68.88 q -0.83,11.14 -3.92,20.03 -3.1,8.9 -8.15,15.16 -5.05,6.27 -12.04,9.64 -6.9,3.37 -15.4,3.37 -4.2,0 -7.8,-0.84 -3.6,-0.75 -6.83,-2.53 -3.14,-1.78 -6.22,-4.5 -2.98,-2.7 -6.06,-6.55 l -0.68,9.08 q -0.08,1.03 -0.7,1.78 -0.52,0.66 -1.77,1.12 -1.16,0.47 -3.14,0.66 -1.98,0.2 -4.8,0.2 -2.9,0 -4.85,-0.2 -1.86,-0.2 -3.04,-0.66 -1.1,-0.47 -1.5,-1.12 -0.4,-0.75 -0.34,-1.78 l 9.16,-123.07 q 0.07,-0.94 0.7,-1.68 0.62,-0.75 1.96,-1.22 1.45,-0.56 3.7,-0.84 2.27,-0.28 5.73,-0.28 3.46,0 5.7,0.28 2.23,0.28 3.5,0.84 1.37,0.47 1.87,1.22 0.5,0.75 0.44,1.68 l -3.43,46.14 q 3.42,-3.18 6.77,-5.43 3.35,-2.25 6.64,-3.65 3.3,-1.5 6.7,-2.15 3.42,-0.66 7.16,-0.66 9.27,0 15.44,3.74 6.2,3.65 9.74,9.92 3.65,6.27 4.9,14.7 1.25,8.33 0.56,17.6 z m -24.55,1.68 q 0.4,-5.33 -0.08,-10.3 -0.38,-4.96 -2.06,-8.8 -1.68,-3.84 -4.7,-6.08 -2.9,-2.34 -7.7,-2.34 -2.34,0 -4.63,0.66 -2.3,0.66 -4.85,2.25 -2.46,1.6 -5.17,4.12 -2.7,2.53 -5.8,6.27 l -2.06,27.7 q 4.5,6.36 8.73,9.73 4.34,3.28 9.3,3.28 4.6,0 7.94,-2.34 3.36,-2.34 5.7,-6.08 2.43,-3.74 3.72,-8.52 1.3,-4.77 1.65,-9.55 z"
     id="path44"
     inkscape:connector-curvature="0"
     style="fill:#11557c" />
  <g
     id="g108"
     transform="matrix(0.9481,0,0,0.9481,-7.5489714,-24.5029)">
    <g
       id="g52"
       fill="#fff">
      <circle
         id="circle48"
         stroke-width="4.8"
         stroke="#fff"
         cx="546.02002"
         cy="114.29"
         r="74.599998" />
      <use
         height="100%"
         width="100%"
         y="0"
         x="0"
         id="use50"
         opacity=".05"
         xlink:href="#D" />
    </g>
    <g
       id="g86"
       transform="matrix(2.1033,0,0,2.1033,431.9281,30.5113)">
      <g
         id="g58"
         class="H"
         stroke-width=".2"
         stroke-miterlimit="4"
         stroke-linecap="round"
         fill="none"
         stroke="#858585">
        <path
           inkscape:connector-curvature="0"
           id="path54"
           clip-path="url(#L)"
           class="B F"
           d="M 54,39.6 H 87.66 M 54,39.6 77.8,15.8 M 54,39.6 V 5.94 M 54,39.6 30.2,15.8 M 54,39.6 H 20.34" />
        <path
           inkscape:connector-curvature="0"
           id="path56"
           clip-path="url(#L)"
           class="B F"
           d="M 54,39.6 30.2,63.4 M 54,39.6 V 73.26 M 54,39.6 77.8,63.4" />
      </g>
      <g
         id="g68"
         class="G H"
         stroke-width=".2"
         stroke-linecap="square"
         stroke="#818181"
         fill="none">
        <path
           inkscape:connector-curvature="0"
           id="path60"
           clip-path="url(#L)"
           class="B F"
           d="m 57.74,39.6 -0.1,-0.9 -0.33,-0.85 -0.52,-0.75 -0.7,-0.6 -0.8,-0.4 -0.9,-0.2 -0.9,0.02 -0.88,0.24 -0.8,0.44 -0.67,0.62 -0.5,0.76 -0.3,0.86 -0.08,0.9 0.14,0.9 0.36,0.84 0.55,0.73 0.7,0.57 0.83,0.4 0.9,0.17 0.9,-0.05 0.87,-0.27 0.78,-0.47 0.64,-0.64 0.47,-0.78 0.27,-0.87 0.06,-0.65" />
        <path
           inkscape:connector-curvature="0"
           id="path62"
           clip-path="url(#L)"
           class="B F"
           d="m 65.22,39.6 -0.1,-1.56 -0.33,-1.53 -0.54,-1.47 -0.73,-1.38 -0.92,-1.27 -1.1,-1.13 -1.23,-0.96 -1.36,-0.78 -1.45,-0.6 -1.52,-0.38 -1.56,-0.16 -1.56,0.05 -1.54,0.27 -1.5,0.48 -1.4,0.7 -1.3,0.88 -1.16,1.05 -1,1.2 -0.83,1.33 -0.64,1.43 -0.43,1.5 -0.22,1.55 v 1.57 l 0.22,1.55 0.43,1.5 0.64,1.43 0.83,1.33 1,1.2 1.16,1.05 1.3,0.88 1.4,0.7 1.5,0.48 1.54,0.27 1.56,0.05 1.56,-0.16 1.52,-0.38 1.45,-0.6 1.36,-0.78 1.23,-0.96 1.1,-1.13 0.92,-1.27 0.73,-1.38 0.54,-1.47 0.33,-1.53 0.1,-1.56" />
        <path
           inkscape:connector-curvature="0"
           id="path64"
           clip-path="url(#L)"
           class="B F"
           d="M 72.7,39.6 72.6,37.65 72.3,35.72 71.8,33.82 71.1,31.99 70.2,30.25 69.13,28.61 67.9,27.09 66.52,25.71 65,24.47 63.36,23.4 61.62,22.5 59.79,21.8 57.89,21.3 55.96,21 54.01,20.9 52.06,21 l -1.93,0.3 -1.9,0.5 -1.83,0.7 -1.74,0.9 -1.66,1.07 -1.5,1.23 -1.4,1.4 -1.23,1.52 -1.07,1.64 -0.9,1.74 -0.7,1.83 -0.5,1.9 -0.3,1.93 -0.1,1.95 0.1,1.95 0.3,1.93 0.5,1.9 0.7,1.83 0.9,1.74 1.07,1.64 1.23,1.52 1.38,1.38 1.52,1.23 1.64,1.07 1.74,0.9 1.83,0.7 1.9,0.5 1.93,0.3 1.95,0.1 1.95,-0.1 1.93,-0.3 1.9,-0.5 1.83,-0.7 1.74,-0.9 1.66,-1.07 1.52,-1.23 1.38,-1.38 1.23,-1.52 1.07,-1.64 0.9,-1.74 0.7,-1.83 0.5,-1.9 0.3,-1.93 0.1,-1.95" />
        <path
           inkscape:connector-curvature="0"
           id="path66"
           clip-path="url(#L)"
           class="B F"
           d="m 80.18,39.6 -0.14,-2.74 -0.43,-2.7 -0.7,-2.65 -0.98,-2.56 -1.24,-2.44 -1.5,-2.3 -1.72,-2.13 -1.94,-1.94 -2.13,-1.72 -2.3,-1.5 -2.44,-1.24 -2.56,-0.98 -2.65,-0.7 -2.7,-0.43 -2.74,-0.14 -2.74,0.14 -2.7,0.43 -2.65,0.7 -2.56,0.98 -2.44,1.24 -2.3,1.5 -2.13,1.72 -1.94,1.94 -1.72,2.13 -1.5,2.3 -1.24,2.44 -0.98,2.56 -0.7,2.65 -0.43,2.7 -0.14,2.74 0.14,2.74 0.43,2.7 0.7,2.65 0.98,2.56 1.24,2.44 1.5,2.3 1.72,2.13 1.94,1.94 2.13,1.72 2.3,1.5 2.44,1.24 2.56,0.98 2.65,0.7 2.7,0.43 2.74,0.14 2.74,-0.14 2.7,-0.43 2.65,-0.7 2.56,-0.98 2.44,-1.24 2.3,-1.5 2.13,-1.72 1.94,-1.94 1.71,-2.12 1.5,-2.3 1.24,-2.44 0.98,-2.56 0.7,-2.65 0.43,-2.7 0.14,-2.74" />
      </g>
      <g
         id="g84"
         class="G"
         stroke-width=".46"
         stroke="#000">
        <use
           height="100%"
           width="100%"
           y="0"
           x="0"
           id="use70"
           clip-path="url(#L)"
           class="B C"
           fill="#004cff"
           xlink:href="#E" />
        <use
           height="100%"
           width="100%"
           y="0"
           x="0"
           id="use72"
           clip-path="url(#L)"
           class="B C"
           fill="#ceff29"
           xlink:href="#F" />
        <use
           height="100%"
           width="100%"
           y="0"
           x="0"
           id="use74"
           clip-path="url(#L)"
           class="B C"
           fill="#ff6800"
           xlink:href="#G" />
        <use
           height="100%"
           width="100%"
           y="0"
           x="0"
           id="use76"
           clip-path="url(#L)"
           class="B C"
           fill="#ffc400"
           xlink:href="#H" />
        <use
           height="100%"
           width="100%"
           y="0"
           x="0"
           id="use78"
           clip-path="url(#L)"
           class="B D"
           fill="#29ffce"
           xlink:href="#I" />
        <use
           height="100%"
           width="100%"
           y="0"
           x="0"
           id="use80"
           clip-path="url(#L)"
           class="B C"
           fill="#7dff7a"
           xlink:href="#J" />
        <use
           height="100%"
           width="100%"
           y="0"
           x="0"
           id="use82"
           clip-path="url(#L)"
           class="B C"
           fill="#ff6800"
           xlink:href="#K" />
      </g>
    </g>
    <g
       id="g106"
       fill="none">
      <use
         height="100%"
         width="100%"
         y="0"
         x="0"
         id="use88"
         stroke="#11557c"
         stroke-width="2.1"
         stroke-linejoin="miter"
         xlink:href="#D" />
      <g
         id="g104"
         class="G"
         stroke-width=".46"
         stroke="#000"
         transform="matrix(2.1033,0,0,2.1033,431.9281,30.5113)">
        <use
           height="100%"
           width="100%"
           y="0"
           x="0"
           id="use90"
           clip-path="url(#A)"
           class="D E"
           xlink:href="#E" />
        <use
           height="100%"
           width="100%"
           y="0"
           x="0"
           id="use92"
           clip-path="url(#A)"
           class="D E"
           xlink:href="#F" />
        <use
           height="100%"
           width="100%"
           y="0"
           x="0"
           id="use94"
           clip-path="url(#A)"
           class="D E"
           xlink:href="#G" />
        <use
           height="100%"
           width="100%"
           y="0"
           x="0"
           id="use96"
           clip-path="url(#A)"
           class="D E"
           xlink:href="#H" />
        <use
           height="100%"
           width="100%"
           y="0"
           x="0"
           id="use98"
           clip-path="url(#A)"
           class="C E"
           xlink:href="#I" />
        <use
           height="100%"
           width="100%"
           y="0"
           x="0"
           id="use100"
           clip-path="url(#A)"
           class="D E"
           xlink:href="#J" />
        <use
           height="100%"
           width="100%"
           y="0"
           x="0"
           id="use102"
           clip-path="url(#A)"
           class="D E"
           xlink:href="#K" />
      </g>
    </g>
  </g>
  <text
     xml:space="preserve"
     style="font-style:normal;font-variant:normal;font-weight:300;font-stretch:normal;font-size:24px;line-height:1.25;font-family:Roboto;-inkscape-font-specification:'Roboto Light';font-variant-ligatures:normal;font-variant-caps:normal;font-variant-numeric:normal;font-variant-east-asian:normal;fill:#11557c;fill-opacity:1;stroke:none;stroke-width:0.641711"
     x="697.84113"
     y="158.73488"
     id="text71"><tspan
       sodipodi:role="line"
       id="tspan69"
       x="697.84113"
       y="158.73488"
       style="font-style:normal;font-variant:normal;font-weight:300;font-stretch:normal;font-size:24px;font-family:Roboto;-inkscape-font-specification:'Roboto Light';font-variant-ligatures:normal;font-variant-caps:normal;font-variant-numeric:normal;font-variant-east-asian:normal;fill:#11557c;fill-opacity:1;stroke-width:0.641711">Version 3.2</tspan></text>
  <text
     transform="skewX(-4.6980635)"
     id="text71-2"
     y="160.59987"
     x="145.26416"
     style="font-style:normal;font-variant:normal;font-weight:300;font-stretch:normal;font-size:32px;line-height:1.25;font-family:Roboto;-inkscape-font-specification:'Roboto Light';font-variant-ligatures:normal;font-variant-caps:normal;font-variant-numeric:normal;font-variant-east-asian:normal;fill:#11557c;fill-opacity:1;stroke:none;stroke-width:0.75"
     xml:space="preserve"><tspan
       style="font-style:normal;font-variant:normal;font-weight:300;font-stretch:normal;font-size:32px;font-family:Roboto;-inkscape-font-specification:'Roboto Light';font-variant-ligatures:normal;font-variant-caps:normal;font-variant-numeric:normal;font-variant-east-asian:normal;fill:#11557c;fill-opacity:1;stroke-width:0.75"
       y="160.59987"
       x="145.26416"
       id="tspan69-5"
       sodipodi:role="line">Cheat sheet</tspan></text>
  <text
     xml:space="preserve"
     style="font-style:normal;font-variant:normal;font-weight:300;font-stretch:normal;font-size:7px;line-height:1.25;font-family:Roboto;-inkscape-font-specification:'Roboto Light';font-variant-ligatures:normal;font-variant-caps:normal;font-variant-numeric:normal;font-variant-east-asian:normal;fill:#11557c;fill-opacity:1;stroke:none;stroke-width:0.75"
     x="-108.06878"
     y="321.49683"
     id="text71-2-8"
     transform="matrix(0.06994224,-0.99755105,0.99180312,0.15192191,0,0)"><tspan
       sodipodi:role="line"
       id="tspan69-5-8"
       x="-108.06878"
       y="321.49683"
       style="font-style:normal;font-variant:normal;font-weight:300;font-stretch:normal;font-size:7px;font-family:Roboto;-inkscape-font-specification:'Roboto Light';font-variant-ligatures:normal;font-variant-caps:normal;font-variant-numeric:normal;font-variant-east-asian:normal;fill:#11557c;fill-opacity:0.25;stroke-width:0.75">DESIGNED BY NICOLAS P. ROUGIER</tspan></text>
</svg>
